<?xml version="1.0" encoding="utf-8"?>
<!-- Generator: Adobe Illustrator 24.0.2, SVG Export Plug-In . SVG Version: 6.00 Build 0)  -->
<svg version="1.1" id="Capa_1" xmlns="http://www.w3.org/2000/svg" xmlns:xlink="http://www.w3.org/1999/xlink" x="0px" y="0px"
	 viewBox="0 0 475 100" style="enable-background:new 0 0 475 100;" xml:space="preserve">
<style type="text/css">
	.st0{fill:#FFFFFF;}
	.st1{fill:#D0D0D0;}
	.st2{fill:#AFCA0A;}
</style>
<g>
	<g>
		<path class="st2" d="M305.15,35.03v-8.51h-31.38v8.51h11.33v25.11c0,6.55,5.33,11.88,11.88,11.88h3.04V63.5h-3.04
			c-1.86,0-3.37-1.51-3.37-3.37V35.03H305.15z"/>
		<g>
			<path class="st2" d="M448.5,26.56c1.1,0,2.12,0.18,3.06,0.54c0.94,0.36,1.75,0.87,2.44,1.54c0.69,0.67,1.23,1.48,1.62,2.43
				c0.39,0.95,0.58,2.02,0.58,3.2c0,1.18-0.19,2.25-0.58,3.2c-0.39,0.95-0.93,1.76-1.62,2.43c-0.69,0.67-1.5,1.18-2.44,1.54
				c-0.94,0.36-1.96,0.54-3.06,0.54s-2.12-0.18-3.07-0.54c-0.94-0.36-1.76-0.87-2.45-1.54c-0.69-0.67-1.23-1.48-1.62-2.43
				c-0.39-0.95-0.59-2.02-0.59-3.2c0-1.18,0.2-2.25,0.59-3.2c0.39-0.95,0.93-1.76,1.62-2.43c0.69-0.67,1.5-1.18,2.45-1.54
				C446.38,26.74,447.4,26.56,448.5,26.56z M448.5,40.92c0.88,0,1.71-0.13,2.49-0.4c0.78-0.27,1.46-0.68,2.03-1.23
				c0.58-0.55,1.03-1.24,1.37-2.08c0.34-0.83,0.51-1.82,0.51-2.95c0-1.13-0.17-2.11-0.51-2.95c-0.34-0.83-0.79-1.53-1.37-2.08
				c-0.58-0.55-1.25-0.96-2.03-1.23c-0.78-0.27-1.61-0.4-2.49-0.4c-0.89,0-1.72,0.13-2.5,0.4c-0.78,0.27-1.46,0.68-2.03,1.23
				c-0.58,0.55-1.03,1.24-1.37,2.08c-0.33,0.83-0.5,1.82-0.5,2.95c0,1.13,0.17,2.11,0.5,2.95c0.33,0.83,0.79,1.53,1.37,2.08
				c0.58,0.55,1.25,0.96,2.03,1.23C446.78,40.79,447.61,40.92,448.5,40.92z M445.42,30.15h3.28c0.44,0,0.86,0.05,1.24,0.15
				c0.39,0.1,0.73,0.25,1.01,0.46c0.29,0.21,0.51,0.47,0.68,0.79c0.17,0.32,0.25,0.7,0.25,1.14c0,0.25-0.05,0.48-0.14,0.69
				s-0.23,0.41-0.39,0.58c-0.17,0.17-0.36,0.32-0.58,0.46c-0.22,0.13-0.46,0.24-0.71,0.33l1.97,3.36h-1.37l-1.82-3.13h-2.08v3.13
				h-1.34V30.15z M446.76,31.23v2.67h2.42c0.15-0.02,0.3-0.06,0.46-0.11c0.16-0.05,0.31-0.12,0.45-0.21
				c0.14-0.09,0.25-0.21,0.34-0.35c0.09-0.14,0.13-0.32,0.13-0.53c0-0.53-0.18-0.9-0.53-1.12c-0.35-0.22-0.86-0.33-1.53-0.33H446.76
				z"/>
		</g>
		<path class="st2" d="M377.63,72.02h-8.51v-19.7c0-3.55-2.89-6.44-6.44-6.44c-3.55,0-6.44,2.89-6.44,6.44v19.7h-8.51v-19.7
			c0-8.25,6.71-14.95,14.95-14.95c8.25,0,14.96,6.71,14.96,14.95V72.02z"/>
		<path class="st2" d="M340.85,56.74h-27.17c0.39,2.4,1.44,4.3,3.14,5.72c1.7,1.41,3.88,2.12,6.52,2.12c3.16,0,5.88-1.1,8.15-3.32
			l7.13,3.35c-1.78,2.52-3.9,4.38-6.38,5.59c-2.48,1.21-5.42,1.81-8.83,1.81c-5.29,0-9.59-1.67-12.92-5
			c-3.33-3.33-4.99-7.51-4.99-12.53c0-5.14,1.66-9.41,4.97-12.81c3.31-3.4,7.47-5.1,12.47-5.1c5.31,0,9.63,1.7,12.95,5.1
			c3.32,3.4,4.99,7.89,4.99,13.46L340.85,56.74z M332.39,50.08c-0.56-1.88-1.66-3.41-3.31-4.59c-1.65-1.18-3.55-1.77-5.73-1.77
			c-2.36,0-4.43,0.66-6.21,1.98c-1.12,0.83-2.15,2.28-3.1,4.37H332.39z"/>
		<path class="st2" d="M395.77,38.76v-12.2h-8.51v12.2h-6.58l0,0v6.66v0h6.58v14.71c0,6.55,5.33,11.88,11.88,11.88h3.21V63.5h-3.21
			c-1.86,0-3.37-1.51-3.37-3.37V45.42h6.58v0v-6.66l0,0H395.77z"/>
		<path class="st2" d="M423.06,36.54c-9.78,0-17.74,7.96-17.74,17.74c0,9.78,7.96,17.74,17.74,17.74c9.78,0,17.74-7.96,17.74-17.74
			C440.8,44.49,432.84,36.54,423.06,36.54z M422.64,59.98c-0.53-0.46-1.19-0.73-1.89-0.79l-7.92-0.62l15.76-15.54l0.08,22.13
			L422.64,59.98z"/>
	</g>
	<path class="st1" d="M135.02,27.93h15.07c3.38,0,6.45,0.53,9.2,1.6c2.75,1.07,5.09,2.57,7.02,4.52c1.93,1.95,3.42,4.29,4.47,7.04
		c1.04,2.75,1.57,5.81,1.57,9.2c0,3.39-0.52,6.46-1.57,9.22c-1.04,2.76-2.53,5.12-4.47,7.09c-1.93,1.97-4.28,3.49-7.02,4.57
		c-2.75,1.08-5.82,1.62-9.2,1.62h-15.07V27.93z M144.88,35.12v30.47h4.48c1.93,0,3.7-0.3,5.29-0.89c1.59-0.59,2.95-1.52,4.07-2.77
		c1.12-1.25,1.99-2.84,2.6-4.76c0.61-1.92,0.92-4.21,0.92-6.87c0-2.66-0.31-4.95-0.92-6.86c-0.62-1.91-1.48-3.48-2.6-4.71
		c-1.12-1.23-2.48-2.14-4.07-2.72c-1.59-0.58-3.36-0.87-5.29-0.87H144.88z"/>
	<path class="st1" d="M206.11,63.41h-16.19l-3.03,9.36h-9.69l15.46-44.84h10.72l15.5,44.84h-9.69L206.11,63.41z M192.26,56.15h11.51
		L198,38.48L192.26,56.15z"/>
	<path class="st1" d="M250.98,63.41h-16.19l-3.03,9.36h-9.69l15.46-44.84h10.72l15.5,44.84h-9.69L250.98,63.41z M237.13,56.15h11.51
		l-5.77-17.67L237.13,56.15z"/>
	<path class="st1" d="M72.68,50.29c0-3.48,0.52-6.64,1.55-9.48c1.03-2.84,2.51-5.27,4.43-7.28c1.92-2.02,4.25-3.57,6.99-4.66
		c2.74-1.09,5.82-1.64,9.23-1.64c2.25,0,4.15,0.18,5.7,0.53c1.55,0.35,2.89,0.76,4.01,1.22l-1.68,6.67
		c-1.04-0.37-2.2-0.67-3.49-0.89c-1.29-0.22-2.66-0.33-4.11-0.33c-1.92,0-3.65,0.31-5.19,0.93c-1.54,0.62-2.85,1.57-3.93,2.86
		c-1.08,1.29-1.91,2.93-2.49,4.92c-0.58,1.99-0.88,4.38-0.88,7.15s0.3,5.17,0.89,7.19c0.59,2.02,1.44,3.67,2.53,4.97
		c1.09,1.3,2.41,2.26,3.96,2.89c1.55,0.63,3.28,0.94,5.17,0.94c1.78,0,3.41-0.18,4.89-0.55c1.48-0.36,2.78-0.77,3.9-1.21l1.55,6.71
		c-1.28,0.64-2.84,1.17-4.69,1.6c-1.85,0.43-4.11,0.64-6.77,0.64c-3.3,0-6.28-0.56-8.94-1.67c-2.65-1.11-4.92-2.68-6.79-4.71
		c-1.87-2.03-3.32-4.47-4.33-7.32C73.19,56.93,72.68,53.77,72.68,50.29z"/>
	<path class="st1" d="M108.3,53.99v-7.47h18.6v7.47H108.3z"/>
	<polygon class="st1" points="53.75,27.89 41.86,49.06 29.97,27.89 18.8,27.89 18.8,72.82 24.89,72.82 28.64,72.82 28.64,55.67 
		28.64,41.76 38.89,60.33 44.8,60.33 54.94,41.99 54.94,56 54.94,72.82 60.69,72.82 64.82,72.82 64.82,27.89 	"/>
</g>
</svg>
